<svg width="302" height="46" viewBox="0 0 302 46" fill="none" xmlns="http://www.w3.org/2000/svg">
<path d="M11.6 11.7968H0.5V2.31679H35.06V11.7968H23.96V45.2168H11.6V11.7968ZM46.6728 45.9368C43.6328 45.9368 41.1728 45.1968 39.2928 43.7168C37.1328 42.0768 36.0528 39.6768 36.0528 36.5168C36.0528 29.6768 41.6128 26.2568 52.7328 26.2568H55.7328V25.5368C55.7328 23.8568 55.4328 22.6168 54.8328 21.8168C54.2728 20.9768 53.1928 20.5568 51.5928 20.5568C49.0728 20.5568 47.6528 21.7968 47.3328 24.2768H37.2528C37.4928 20.5968 38.9928 17.7568 41.7528 15.7568C44.3128 13.9168 47.8128 12.9968 52.2528 12.9968C56.7328 12.9968 60.1728 13.9368 62.5728 15.8168C65.1328 17.8168 66.4128 20.8368 66.4128 24.8768V45.2168H55.9728V41.5568C54.0928 44.4768 50.9928 45.9368 46.6728 45.9368ZM50.3928 38.6768C51.9528 38.6768 53.2328 38.2768 54.2328 37.4768C55.2328 36.6368 55.7328 35.5568 55.7328 34.2368V32.3168H52.9128C50.7128 32.3168 49.1128 32.5768 48.1128 33.0968C47.1528 33.5768 46.6728 34.4568 46.6728 35.7368C46.6728 37.6968 47.9128 38.6768 50.3928 38.6768ZM75.1091 0.0367956H85.7891V45.2168H75.1091V0.0367956ZM110.075 45.9368C104.955 45.9368 100.895 44.5568 97.8945 41.7968C94.6545 38.9568 93.0345 34.9968 93.0345 29.9168V29.4368C93.0345 24.5168 94.6745 20.5168 97.9545 17.4368C101.115 14.4768 105.135 12.9968 110.015 12.9968C114.615 12.9968 118.355 14.2968 121.235 16.8968C124.395 19.7768 125.975 23.8768 125.975 29.1968V32.0168H103.895C104.055 34.0968 104.695 35.7168 105.815 36.8768C106.975 37.9968 108.515 38.5568 110.435 38.5568C113.595 38.5568 115.415 37.3168 115.895 34.8368H125.975C125.495 38.4368 123.895 41.1968 121.175 43.1168C118.495 44.9968 114.795 45.9368 110.075 45.9368ZM115.535 25.9568C115.335 22.0368 113.495 20.0768 110.015 20.0768C106.575 20.0768 104.575 22.0368 104.015 25.9568H115.535ZM132.901 13.8368H143.641V18.8768C145.641 14.9568 149.081 12.9968 153.961 12.9968C157.081 12.9968 159.561 13.9968 161.401 15.9968C163.281 17.9968 164.221 20.9368 164.221 24.8168V45.2168H153.481V26.9768C153.481 23.4568 151.981 21.6968 148.981 21.6968C147.341 21.6968 146.041 22.1968 145.081 23.1968C144.121 24.1968 143.641 25.6768 143.641 27.6368V45.2168H132.901V13.8368ZM185.091 45.9368C177.731 45.9368 174.051 42.3368 174.051 35.1368V21.1568H170.271V13.8368H174.051V7.2968H184.791V13.8368H190.971V21.1568H184.791V34.1168C184.791 36.3168 185.851 37.4168 187.971 37.4168C189.171 37.4168 190.191 37.2368 191.031 36.8768V45.0368C189.071 45.6368 187.091 45.9368 185.091 45.9368ZM199.219 2.31679H218.359C223.279 2.31679 226.959 3.35679 229.399 5.43679C231.679 7.3568 232.819 10.0568 232.819 13.5368V13.7768C232.819 18.6968 230.399 21.7768 225.559 23.0168C231.279 23.9768 234.139 27.3168 234.139 33.0368V33.2768C234.139 41.2368 228.939 45.2168 218.539 45.2168H199.219V2.31679ZM216.319 36.9968C220.119 36.9968 222.019 35.3368 222.019 32.0168V31.7768C222.019 30.0968 221.539 28.8568 220.579 28.0568C219.619 27.2568 218.079 26.8568 215.959 26.8568H211.219V36.9968H216.319ZM215.899 19.3568C217.819 19.3568 219.179 19.0168 219.979 18.3368C220.779 17.6568 221.179 16.5368 221.179 14.9768V14.7368C221.179 13.2568 220.759 12.1768 219.919 11.4968C219.119 10.8168 217.779 10.4768 215.899 10.4768H211.219V19.3568H215.899ZM241.25 13.8368H251.99V20.0768C253.87 15.5568 257.25 13.3368 262.13 13.4168V23.4368C255.37 23.2368 251.99 25.5368 251.99 30.3368V45.2168H241.25V13.8368ZM284.43 37.9568C288.55 37.9568 290.61 35.2168 290.61 29.7368V29.2568C290.61 23.7768 288.55 21.0368 284.43 21.0368C280.27 21.0368 278.19 23.7368 278.19 29.1368V29.6168C278.19 35.1768 280.27 37.9568 284.43 37.9568ZM296.61 41.6168C293.41 44.4968 289.33 45.9368 284.37 45.9368C279.41 45.9368 275.35 44.5368 272.19 41.7368C268.87 38.8568 267.21 34.9168 267.21 29.9168V29.4368C267.21 24.5168 268.87 20.5168 272.19 17.4368C275.35 14.4768 279.43 12.9968 284.43 12.9968C289.43 12.9968 293.49 14.4368 296.61 17.3168C299.89 20.3568 301.53 24.2968 301.53 29.1368V29.6168C301.53 34.5768 299.89 38.5768 296.61 41.6168Z" fill="black"/>
</svg>
