<svg width="100" height="80" viewBox="0 0 100 80" fill="none" xmlns="http://www.w3.org/2000/svg">
<path d="M1.19647 27.624C0.862823 28.0483 0.383963 28.4901 0.837964 29.0352C1.526 29.8678 2.40924 29.5088 3.24502 29.2818C3.65793 29.4388 4.11426 29.4391 4.5279 29.2826C4.94155 29.1261 5.28391 28.8237 5.49039 28.4324L4.47237 27.7448L5.46754 28.4614C7.56289 27.3617 9.51184 26.0025 11.2683 24.4159C13.6174 22.9507 15.8037 21.2391 17.7902 19.31L18.3354 18.9391L28.4328 11.4713C29.7911 11.032 30.997 10.2151 31.9092 9.11598L32.7653 7.90785C32.4636 8.29148 32.2026 8.70704 31.9092 9.11598C33.7464 8.90508 35.0899 7.76975 36.4229 6.63568C36.8412 6.75737 37.2869 6.74801 37.7001 6.60885C38.1134 6.46969 38.4743 6.20739 38.7346 5.85721C39.2796 5.61789 39.7832 5.56245 40.1247 6.179C39.3281 7.82896 38.5227 9.47824 37.7084 11.1268C37.3862 12.0023 37.0537 12.8789 36.7211 13.7556C36.627 13.8119 36.5519 13.8951 36.5055 13.9945C36.4591 14.0939 36.4437 14.2049 36.4612 14.3131C35.764 15.4863 34.3311 16.222 34.4183 17.8426C33.1932 19.532 31.6378 21.0085 31.0283 23.0972L25.6176 31.4472C25.7568 31.5567 25.9019 31.6708 26.0411 31.7802C25.9019 31.6708 25.7568 31.5567 25.6176 31.4472C22.6616 35.4539 20.0887 39.7295 17.933 44.2174C17.5572 44.8625 16.7573 45.2589 16.9926 46.1776C17.5987 48.5355 18.952 47.4831 20.1865 46.8924C22.4704 44.7282 24.9876 42.7568 26.957 40.3359C28.5948 38.3127 31.2937 37.3402 32.2813 34.7587C33.8328 33.4703 35.3862 32.1834 36.9415 30.898C40.1565 28.2901 43.3718 25.6856 46.5876 23.0846C48.4318 22.8887 49.0183 20.9606 50.4733 20.2328C53.1061 19.0578 55.2942 17.1945 57.6434 15.5802C59.5443 15.551 60.4176 13.1148 62.4956 13.4695C62.279 13.8166 62.0682 14.1682 61.8575 14.5198L61.3867 15.1185C61.1125 15.4673 60.8383 15.816 60.564 16.1648C57.383 20.5207 53.405 24.2782 50.9953 29.1936C48.5011 32.6881 45.3006 35.6836 43.5579 39.7031C43.1603 40.2088 42.8032 40.7464 42.423 41.2658C41.7055 42.1784 40.6413 42.8749 40.5995 44.2059L40.1474 45.4495C38.931 46.901 37.7435 48.3753 37.7381 50.4123C38.4887 52.3476 39.6343 53.1355 41.4114 51.5323C43.412 49.7284 45.345 47.8433 47.3083 45.9913C48.9719 45.8698 49.2483 44.1211 50.3731 43.3594C52.6306 42.4349 54.0106 40.5007 55.5863 38.7954C56.6707 39.1119 57.2652 38.7141 57.3455 37.5731C57.5516 37.4868 57.7356 37.3549 57.8836 37.1873C61.1217 35.9709 63.4908 33.3282 66.3912 31.5264C69.0549 29.8584 72.0725 28.4686 74.1287 25.9373C74.2613 25.7687 74.3938 25.6001 74.5264 25.4316L77.3019 24.2183C77.5945 23.8463 77.8463 23.4424 78.1215 23.0567L79.9174 21.9668L80.4702 22.4579C81.6812 22.112 82.8573 21.7388 83.6207 20.6365C84.7196 21.0303 84.8264 19.8914 85.4081 19.474C86.3841 19.9404 87.199 19.095 88.1233 19.1257C89.3278 19.3015 90.441 19.1516 91.2472 18.0547C91.9144 17.206 92.8593 17.9866 93.604 17.6128C95.4646 17.2886 94.4711 18.6237 94.5801 19.3209C92.8486 20.9976 91.7387 23.1256 90.4096 25.0905L89.9021 25.5568L89.7008 27.007L89.9021 25.5568C88.6412 27.3873 86.7685 28.8495 86.1015 31.1187C85.4669 32.0213 84.5023 32.7584 84.6389 34.0416C82.4889 34.2323 82.4841 36.4954 81.2859 37.6133L79.6405 39.7058C78.3562 41.3391 76.5699 42.6436 76.1934 44.8778C76.6504 44.2965 77.1207 43.7821 77.5814 43.232C77.1244 43.8132 76.6599 44.3322 76.1934 44.8778C74.3245 45.9291 73.7946 48.024 72.5776 49.5598C70.0284 52.1566 67.9416 55.1701 66.4074 58.4696C66.0052 58.9811 65.603 59.4926 65.2008 60.0041C65.1 60.0162 65.0064 60.0632 64.9364 60.137C64.8664 60.2108 64.8243 60.3067 64.8174 60.4081C64.546 60.4493 64.3003 60.5925 64.1305 60.8085C63.9606 61.0245 63.8794 61.2971 63.9033 61.5706C62.3921 61.8685 62.7759 63.5059 61.9929 64.3106C60.8231 65.9775 59.0422 67.2392 58.6202 69.4L57.1717 71.6004C57.3187 71.7159 57.4638 71.83 57.6069 71.9425C57.4638 71.83 57.3187 71.7159 57.1717 71.6004C55.6544 73.0484 54.4438 74.7869 53.6123 76.7123C53.3541 77.5063 51.8322 78.379 53.336 79.0818C53.9508 79.3693 54.651 79.4174 55.3001 79.2166C55.9493 79.0158 56.5008 78.5805 56.8473 77.9956C60.3724 72.8598 63.9052 67.73 67.4457 62.6064L66.9641 62.2277L66.1889 63.142L66.9641 62.2277L67.4457 62.6064C71.5239 56.99 75.775 51.5001 79.3023 45.4976C81.0689 45.4004 80.7552 43.7334 81.3546 42.7562C81.4917 42.5818 81.6334 42.4016 81.7705 42.2272C86.1544 37.6789 89.6158 32.4052 93.3046 27.3198C95.1918 24.2511 97.0824 21.1819 98.9765 18.1123C99.4273 17.6994 99.6986 17.1266 99.7324 16.5166C99.7662 15.9066 99.5597 15.308 99.1573 14.8493C97.6881 12.9322 95.9223 14.1869 94.2572 14.4296C93.3143 14.0645 92.7366 14.8707 91.99 15.1396C89.0453 14.8842 86.6963 16.6774 84.0408 17.4394C83.969 17.3983 83.8891 17.3734 83.8067 17.3665C83.7242 17.3595 83.6412 17.3706 83.5634 17.399C83.4857 17.4274 83.415 17.4724 83.3564 17.5309C83.2977 17.5895 83.2526 17.6601 83.224 17.7378C82.9589 18.0749 82.652 18.3697 82.374 18.6874C82.3055 18.7746 82.2232 18.8792 82.1409 18.9838C82.2232 18.8792 82.3055 18.7746 82.374 18.6874C81.6946 18.5997 81.0038 18.6766 80.3597 18.9117C79.7157 19.1469 79.1372 19.5333 78.6732 20.0384C77.7867 19.9716 77.4543 20.7167 76.946 21.22C75.5958 21.2835 74.3166 21.8465 73.3564 22.7997C69.3389 25.3535 65.328 27.903 61.3235 30.4482L59.9557 31.8653C59.2366 31.6573 58.9841 32.1455 58.7516 32.6681C57.8107 33.3393 56.6578 33.7308 56.0139 34.7765C53.3473 35.1348 52.5262 37.9224 50.3976 38.9577C50.2559 39.1379 50.1096 39.3239 49.9679 39.5041C48.6994 40.1621 47.5074 40.8898 46.8602 42.2622C45.9675 40.9018 47.76 40.5805 47.8819 39.6134C51.4455 33.5171 56.7603 28.6567 60.0768 22.3849C62.0655 19.7722 64.9511 17.8459 66.0706 14.5592C67.0105 13.5551 67.8622 12.4719 68.6164 11.3217C69.709 9.35892 69.3938 7.94468 66.7287 8.05016C62.8813 8.78746 59.5659 10.7708 56.3859 12.9641C54.5191 13.9889 52.3194 14.4697 51.0434 16.4388C50.9442 16.4448 50.8488 16.4789 50.7681 16.5371C50.6875 16.5952 50.625 16.675 50.5879 16.7673C48.1496 17.2769 46.778 19.4153 44.8748 20.6655C43.8216 20.524 43.4622 21.3514 42.993 22.0077C41.6558 21.8216 41.5642 23.1323 40.8905 23.7502C39.5971 24.0218 39.0146 25.097 38.2381 26.0009C36.5333 26.772 35.0194 27.9103 33.8047 29.3345C33.0104 29.246 33.2485 29.9224 33.0551 30.2877C32.3653 30.2814 31.8974 31.2586 31.1139 30.7742L30.3295 31.7001L29.9131 32.3133L30.4527 32.7376L29.9131 32.3133C30.0639 32.1215 30.2147 31.9297 30.3295 31.7001C29.8253 30.1561 31.3525 29.6826 31.934 28.7759C31.6252 27.5924 33.5134 27.4122 33.1788 26.1897C34.5031 24.6654 35.5546 22.9242 36.287 21.0428C37.171 19.7155 38.5636 18.6848 38.6575 16.9055L38.4961 16.9197L38.6575 16.9055C41.6254 13.5013 42.941 9.2965 44.3678 5.14145C44.6726 4.25232 44.6753 3.38907 43.5603 2.99203C43.511 2.80671 43.4029 2.6425 43.2522 2.52404C42.7491 0.0590613 41.403 0.994763 40.1086 1.74534C38.4008 1.6723 37.3633 2.99175 36.0689 3.74233C35.5483 3.73513 35.0329 3.84772 34.5623 4.07138C34.0918 4.29505 33.6787 4.62381 33.355 5.03229C29.9651 6.80369 26.7131 8.82787 23.6264 11.0877C23.3344 11.3754 23.0367 11.6586 22.7447 11.9464C22.0085 12.0799 21.3124 12.3801 20.7096 12.824C20.1067 13.2678 19.613 13.8435 19.2663 14.5071C18.4974 15.0312 17.7285 15.5553 16.9653 16.084C15.8974 15.8181 15.7162 16.7292 15.3044 17.3366C13.1086 19.0464 10.9067 20.764 8.69866 22.4894C8.25672 22.932 7.81935 23.3688 7.37617 23.8011C6.11111 24.0363 4.9856 24.7529 4.23623 25.8001C3.92472 26.1007 3.60284 26.4026 3.28554 26.6987L2.45571 26.7987C2.18101 26.7544 1.89951 26.8146 1.66652 26.9673C1.43352 27.12 1.26586 27.3542 1.19647 27.624ZM57.8024 73.8553C57.781 74.0736 57.7538 74.2873 57.7253 74.4907C57.748 74.2828 57.7752 74.069 57.7966 73.8507L57.8024 73.8553ZM63.6206 66.4559C63.3156 67.5006 62.8265 68.4826 62.1763 69.3556C62.8236 68.4872 63.3115 67.5108 63.6173 66.4721C64.4445 65.42 65.2764 64.3622 66.1082 63.3043C65.2855 64.3505 64.4595 65.413 63.638 66.4696L63.6206 66.4559ZM67.7229 60.8208C67.744 60.6209 67.72 60.4188 67.6527 60.2295C67.7941 59.6956 67.9977 59.1801 68.2595 58.6936C67.9977 59.1801 67.7941 59.6956 67.6527 60.2295C67.728 60.4217 67.758 60.6287 67.7403 60.8345L67.7229 60.8208ZM79.2932 45.5092L78.2377 44.5946C78.2474 44.5241 78.253 44.4532 78.2545 44.3821C78.253 44.4532 78.2474 44.5241 78.2377 44.5946L79.2932 45.5092ZM86.0669 34.9481C86.4066 34.7073 86.7575 34.4282 87.0495 34.4509C87.1759 33.9104 87.2145 33.3532 87.1639 32.8007C87.2241 33.358 87.1933 33.9215 87.0727 34.4691C86.7575 34.4282 86.4066 34.7073 86.0669 34.9481ZM98.4168 16.8538C98.2071 17.1164 97.9467 17.3339 97.651 17.4933C97.94 17.326 98.1925 17.1023 98.3936 16.8356L98.4168 16.8538ZM95.6399 17.1254C95.4384 16.9683 95.1961 16.8723 94.9415 16.8489C94.687 16.8255 94.431 16.8756 94.2038 16.9933C94.431 16.8756 94.687 16.8255 94.9415 16.8489C95.1961 16.8723 95.4384 16.9683 95.6399 17.1254ZM88.4141 18.0752C88.4276 18.2143 88.4633 18.3503 88.5198 18.4781C88.4633 18.3503 88.4276 18.2143 88.4141 18.0752ZM89.6434 16.6431C89.3611 16.7602 89.0873 16.8969 88.824 17.0523C88.7829 17.1047 88.7417 17.157 88.7006 17.2093C88.7417 17.157 88.7829 17.1047 88.824 17.0523C89.0873 16.8969 89.3611 16.7602 89.6434 16.6431ZM60.1814 33.8112C59.3603 34.4282 58.6624 35.1942 58.1243 36.0691C58.6677 35.1853 59.3739 34.4127 60.2055 33.7925L60.1814 33.8112ZM50.1785 42.0306C50.0871 42.3032 49.9523 42.5594 49.7793 42.7891C49.3444 42.9362 48.774 42.8734 48.3916 43.1089C48.774 42.8734 49.3535 42.9246 49.7793 42.7891C49.9626 42.5553 50.1056 42.2927 50.2026 42.012L50.1785 42.0306ZM58.1851 20.4083C59.0369 19.2533 59.8868 18.0967 60.7348 16.9387C59.8868 18.0967 59.0369 19.2533 58.1851 20.4083ZM45.9999 43.213C46.3466 43.5218 46.7368 43.7779 47.1581 43.9732C46.7368 43.7779 46.3466 43.5218 45.9999 43.213ZM42.3263 48.0282C42.0703 47.9809 41.8245 47.8894 41.5999 47.758C41.8245 47.8894 42.0703 47.9809 42.3263 48.0282ZM46.4678 40.2416C46.2364 40.3748 45.9701 40.4344 45.7043 40.4126C45.2929 40.9357 44.877 41.4647 44.4657 41.9878C44.877 41.4647 45.2929 40.9357 45.7043 40.4126C45.9701 40.4344 46.2364 40.3748 46.4678 40.2416ZM41.9598 45.1627L42.9752 45.9611C43.1342 45.8404 43.2766 45.6994 43.3989 45.5417C43.5183 44.9013 43.8671 44.326 44.3799 43.9239C43.8671 44.326 43.5183 44.9013 43.3989 45.5417C43.2766 45.6994 43.1342 45.8404 42.9752 45.9611L41.9598 45.1627C42.0337 44.9216 42.1623 44.7008 42.3356 44.5176C42.1647 44.6996 42.0377 44.9183 41.9644 45.1569L41.9598 45.1627ZM53.3908 29.4311L52.5228 29.5199L53.3908 29.4311C53.3876 29.6262 53.4255 29.9005 53.4281 30.1001C53.459 29.9175 53.4212 29.6432 53.4244 29.4481L53.3908 29.4311ZM58.8278 23.0301C58.8975 22.4954 58.9197 21.9557 58.894 21.4173C58.9319 21.9603 58.9209 22.5058 58.8613 23.0471L58.8278 23.0301ZM67.9025 10.5816C67.9774 10.4784 68.0299 10.3607 68.0568 10.236C68.0837 10.1114 68.0843 9.98254 68.0585 9.85775C68.0916 9.9828 68.0977 10.1135 68.0766 10.2412C68.0555 10.3689 68.0076 10.4907 67.9361 10.5986L67.9025 10.5816ZM60.9913 16.5289C61.4301 16.942 61.9709 17.2309 62.5584 17.3661C61.9709 17.2309 61.4301 16.942 60.9913 16.5289ZM51.1988 18.2353L50.8714 19.6428C50.9786 19.1721 51.0858 18.7015 51.1988 18.2353C50.8559 17.9658 50.6289 17.5754 50.5642 17.1437C50.6212 17.5796 50.8435 17.9767 51.1851 18.2528L51.1988 18.2353ZM24.8507 38.3693C24.7531 38.7617 24.5637 39.1253 24.2981 39.4304C24.5637 39.1253 24.7531 38.7617 24.8507 38.3693ZM24.7114 41.0064C23.5467 41.8272 22.5401 42.8524 21.7407 44.0321C22.5401 42.8524 23.5467 41.8272 24.7114 41.0064C24.6153 40.7477 24.6082 40.4642 24.6912 40.2007C24.7743 39.9372 24.9427 39.7087 25.17 39.5515C24.9427 39.7087 24.7743 39.9372 24.6912 40.2007C24.6082 40.4642 24.6153 40.7477 24.7114 41.0064ZM29.5985 33.7403C29.7443 33.8529 29.8748 33.984 29.9868 34.1302C29.8748 33.984 29.7443 33.8529 29.5985 33.7403C29.4682 33.7148 29.3344 33.7114 29.2028 33.7301C29.3344 33.7114 29.4682 33.7148 29.5985 33.7403ZM28.3089 34.3535C27.8835 34.9364 27.3328 35.4163 26.6975 35.7579C27.3328 35.4163 27.8835 34.9364 28.3089 34.3535ZM28.435 31.96C28.5308 32.045 28.6315 32.1242 28.7367 32.1973C28.6315 32.1242 28.5308 32.045 28.435 31.96C28.5215 31.781 28.6287 31.6127 28.7542 31.4585C28.6287 31.6127 28.5215 31.781 28.435 31.96ZM28.0605 32.926C28.0166 33.0134 27.9522 33.0889 27.8729 33.1461C27.7936 33.2033 27.7017 33.2405 27.605 33.2545C27.7017 33.2405 27.7936 33.2033 27.8729 33.1461C27.9522 33.0889 28.0166 33.0134 28.0605 32.926ZM26.0595 36.0558C25.7762 36.4162 25.4974 36.7707 25.2186 37.1253C25.6968 37.2097 26.1762 37.3045 26.6557 37.3993C26.5277 37.5621 26.3952 37.7306 26.2626 37.8992C26.3952 37.7306 26.5277 37.5621 26.6557 37.3993C26.1762 37.3045 25.6968 37.2097 25.2186 37.1253L24.7935 37.6659L25.2186 37.1253L26.0595 36.0558C25.839 35.8824 25.6186 35.709 25.4039 35.5402C25.6049 35.7265 25.8299 35.894 26.0458 36.0732L26.0595 36.0558ZM37.0155 15.6144L37.5261 16.0159L37.0155 15.6144ZM21.469 13.6523C21.4373 13.6802 21.411 13.7137 21.3913 13.7511C21.411 13.7137 21.4373 13.6802 21.469 13.6523ZM20.0907 14.4498L20.7376 15.6452L20.4752 15.8715L20.7376 15.6452L20.0907 14.4498C19.9658 14.5824 19.8331 14.7073 19.6932 14.8239C19.6285 15.102 19.4965 15.36 19.309 15.5753C19.4965 15.36 19.6285 15.102 19.6932 14.8239C19.8368 14.7106 19.9734 14.5887 20.1023 14.4589L20.0907 14.4498ZM4.48696 27.6904C3.88768 28.2257 3.4552 28.3935 3.14418 28.2995C3.4552 28.3935 3.88768 28.2257 4.48696 27.6904Z" fill="#9A33FE"/>
</svg>
