<svg width="173" height="173" viewBox="0 0 173 173" fill="none" xmlns="http://www.w3.org/2000/svg">
<path d="M14.361 104.9L0.000165871 116.401C7.13674 125.167 15.9918 132.45 26.0453 137.822C36.0988 143.194 47.1481 146.547 58.5444 147.684V172.972H69.0756V148.105C71.4404 148.105 73.7956 147.946 76.1124 147.712V173H86.6437V145.988C105.12 141.816 121.674 131.797 133.739 117.484C145.803 103.172 152.705 85.3662 153.374 66.8266L173 55.3064L151.085 44.601C148.565 34.0488 143.985 24.0722 137.596 15.2198C135.243 12.0109 132.55 9.05365 129.563 6.397L122.488 0L124.738 14.1427L117.893 10.9489L118.237 21.8603L90.5403 44.0204C78.0337 54.0151 62.8739 60.3148 46.8379 62.181C30.8019 64.0472 14.5545 61.4026 0.000165871 54.5571C-0.0221681 64.3078 2.21116 73.937 6.53284 82.7234C10.8545 91.5098 17.1525 99.2256 24.955 105.293C32.7575 111.36 41.8623 115.621 51.5872 117.758C61.3121 119.894 71.4051 119.849 81.11 117.628C69.8243 121.449 57.7069 122.284 45.9852 120.048C34.2634 117.813 23.3537 112.587 14.361 104.9ZM128.845 34.6543C130.237 34.6543 131.598 35.0583 132.756 35.8151C133.913 36.572 134.815 37.6477 135.347 38.9061C135.88 40.1646 136.018 41.5492 135.746 42.8848C135.474 44.2204 134.803 45.447 133.818 46.4094C132.833 47.3718 131.578 48.0267 130.212 48.2913C128.847 48.5558 127.431 48.4182 126.146 47.8957C124.86 47.3732 123.762 46.4894 122.99 45.3561C122.218 44.2228 121.807 42.8909 121.809 41.529C121.809 40.6254 121.991 39.7307 122.344 38.896C122.698 38.0613 123.217 37.303 123.87 36.6646C124.524 36.0261 125.299 35.5199 126.153 35.1749C127.007 34.83 127.922 34.6531 128.845 34.6543Z" fill="white"/>
</svg>
