<svg width="181" height="32" viewBox="0 0 181 32" fill="none" xmlns="http://www.w3.org/2000/svg">
<path d="M8 6.6H0.04V2.4H21.32V6.6H13.36V31H8V6.6ZM28.2194 31.4C26.166 31.4 24.486 30.8933 23.1794 29.88C21.8727 28.84 21.2194 27.28 21.2194 25.2C21.2194 22.9067 22.1927 21.2267 24.1394 20.16C26.1127 19.0933 28.7127 18.56 31.9394 18.56H34.5394V17.48C34.5394 16.0133 34.2594 14.9467 33.6994 14.28C33.1394 13.6133 32.1527 13.28 30.7394 13.28C28.366 13.28 27.0327 14.3733 26.7394 16.56H22.0594C22.2727 14.24 23.1927 12.5067 24.8194 11.36C26.446 10.2133 28.5127 9.64 31.0194 9.64C36.5927 9.64 39.3794 12.1867 39.3794 17.28V31H34.6194V28.44C33.0727 30.4133 30.9394 31.4 28.2194 31.4ZM29.3794 27.92C30.926 27.92 32.166 27.5467 33.0994 26.8C34.0594 26.0533 34.5394 25.0133 34.5394 23.68V21.6H32.0594C28.0327 21.6 26.0194 22.7333 26.0194 25C26.0194 26.9467 27.1394 27.92 29.3794 27.92ZM45.2031 0.399998H50.0431V31H45.2031V0.399998ZM65.2988 31.4C62.1521 31.4 59.5921 30.44 57.6188 28.52C55.6721 26.6 54.6988 24.0133 54.6988 20.76V20.44C54.6988 17.24 55.6721 14.64 57.6188 12.64C59.5921 10.64 62.0854 9.64 65.0988 9.64C67.9254 9.64 70.2721 10.52 72.1388 12.28C74.0321 14.04 74.9788 16.68 74.9788 20.2V21.6H59.6588C59.7388 23.6 60.2588 25.1333 61.2188 26.2C62.2054 27.2667 63.6054 27.8 65.4188 27.8C68.2454 27.8 69.8454 26.7333 70.2188 24.6H74.8988C74.5521 26.8133 73.5388 28.5067 71.8588 29.68C70.2054 30.8267 68.0188 31.4 65.2988 31.4ZM70.1788 18.36C69.9121 14.8933 68.2188 13.16 65.0988 13.16C63.6588 13.16 62.4588 13.6267 61.4988 14.56C60.5654 15.4667 59.9788 16.7333 59.7388 18.36H70.1788ZM79.4581 10.08H84.2981V13.4C84.8315 12.3067 85.6715 11.4133 86.8181 10.72C87.9915 10 89.4048 9.64 91.0581 9.64C93.2715 9.64 95.0181 10.32 96.2981 11.68C97.5781 13.0133 98.2181 15.0667 98.2181 17.84V31H93.3781V18.28C93.3781 16.68 93.0448 15.52 92.3781 14.8C91.7115 14.0533 90.6581 13.68 89.2181 13.68C87.7781 13.68 86.5915 14.12 85.6581 15C84.7515 15.8533 84.2981 17.08 84.2981 18.68V31H79.4581V10.08ZM111.07 31.36C108.99 31.36 107.417 30.8267 106.35 29.76C105.284 28.6933 104.75 27.16 104.75 25.16V13.72H101.95V10.08H104.75V5.48H109.59V10.08H114.19V13.72H109.59V24.72C109.59 26.5067 110.39 27.4 111.99 27.4C112.95 27.4 113.737 27.2667 114.35 27V30.84C113.417 31.1867 112.324 31.36 111.07 31.36ZM119.272 2.4H129.512C135.752 2.4 138.872 4.88 138.872 9.84V10C138.872 13.12 137.366 15.1467 134.352 16.08C136.299 16.5067 137.739 17.2667 138.672 18.36C139.606 19.4267 140.072 20.92 140.072 22.84V23C140.072 25.64 139.232 27.64 137.552 29C135.872 30.3333 133.446 31 130.272 31H119.272V2.4ZM129.632 27.2C133.099 27.2 134.832 25.68 134.832 22.64V22.48C134.832 20.96 134.392 19.84 133.512 19.12C132.632 18.4 131.219 18.04 129.272 18.04H124.472V27.2H129.632ZM128.872 14.44C130.606 14.44 131.846 14.1067 132.592 13.44C133.366 12.7733 133.752 11.7067 133.752 10.24V10.08C133.752 8.72 133.352 7.73333 132.552 7.12C131.752 6.50667 130.499 6.2 128.792 6.2H124.472V14.44H128.872ZM144.849 10.08H149.689V14C151.075 11.2 153.342 9.78667 156.489 9.76V14.28C154.249 14.28 152.555 14.7333 151.409 15.64C150.262 16.52 149.689 18.0133 149.689 20.12V31H144.849V10.08ZM169.873 27.64C171.686 27.64 173.099 27.0267 174.113 25.8C175.126 24.5467 175.633 22.84 175.633 20.68V20.4C175.633 18.24 175.126 16.5467 174.113 15.32C173.099 14.0667 171.686 13.44 169.873 13.44C168.059 13.44 166.633 14.0533 165.593 15.28C164.579 16.5067 164.073 18.2 164.073 20.36V20.68C164.073 22.84 164.579 24.5467 165.593 25.8C166.606 27.0267 168.033 27.64 169.873 27.64ZM177.553 28.44C175.526 30.4133 172.953 31.4 169.833 31.4C166.713 31.4 164.139 30.4267 162.113 28.48C160.113 26.5067 159.113 23.9333 159.113 20.76V20.44C159.113 17.24 160.126 14.64 162.153 12.64C164.179 10.64 166.753 9.64 169.873 9.64C172.966 9.64 175.526 10.6267 177.553 12.6C179.579 14.5733 180.593 17.1467 180.593 20.32V20.64C180.593 23.8667 179.579 26.4667 177.553 28.44Z" fill="#ACACAC"/>
</svg>
