<svg width="31" height="18" viewBox="0 0 31 18" fill="none" xmlns="http://www.w3.org/2000/svg">
<path d="M1.55 3H29.45C29.8611 3 30.2553 2.84196 30.546 2.56066C30.8367 2.27936 31 1.89782 31 1.5C31 1.10218 30.8367 0.720645 30.546 0.43934C30.2553 0.158036 29.8611 0 29.45 0H1.55C1.13891 0 0.744666 0.158036 0.453984 0.43934C0.163303 0.720645 0 1.10218 0 1.5C0 1.89782 0.163303 2.27936 0.453984 2.56066C0.744666 2.84196 1.13891 3 1.55 3ZM29.45 15H1.55C1.13891 15 0.744666 15.158 0.453984 15.4393C0.163303 15.7206 0 16.1022 0 16.5C0 16.8978 0.163303 17.2794 0.453984 17.5607C0.744666 17.842 1.13891 18 1.55 18H29.45C29.8611 18 30.2553 17.842 30.546 17.5607C30.8367 17.2794 31 16.8978 31 16.5C31 16.1022 30.8367 15.7206 30.546 15.4393C30.2553 15.158 29.8611 15 29.45 15ZM29.45 7.5H1.55C1.13891 7.5 0.744666 7.65804 0.453984 7.93934C0.163303 8.22064 0 8.60218 0 9C0 9.39782 0.163303 9.77936 0.453984 10.0607C0.744666 10.342 1.13891 10.5 1.55 10.5H29.45C29.8611 10.5 30.2553 10.342 30.546 10.0607C30.8367 9.77936 31 9.39782 31 9C31 8.60218 30.8367 8.22064 30.546 7.93934C30.2553 7.65804 29.8611 7.5 29.45 7.5Z" fill="black"/>
</svg>
